<?xml version="1.0" encoding="UTF-8"?>
<svg width="5px" height="6px" viewBox="0 0 5 6" version="1.1" xmlns="http://www.w3.org/2000/svg" xmlns:xlink="http://www.w3.org/1999/xlink">
    <!-- Generator: Sketch 63 (92445) - https://sketch.com -->
    <title>代码文件</title>
    <desc>Created with Sketch.</desc>
    <g id="页面-1" stroke="none" stroke-width="1" fill="none" fill-rule="evenodd">
        <g id="控制面板——连接状态备份" transform="translate(-29.000000, -125.000000)" fill="#F0F0F0" fill-rule="nonzero">
            <path d="M32.5666862,127.366719 L30.4871444,127.366719 L30.4871444,127.366719 C30.3721077,127.366719 30.2788518,127.462658 30.2788518,127.581004 C30.2788518,127.699351 30.3721077,127.79529 30.4871444,127.79529 L32.5666862,127.79529 L32.5666862,127.79529 C32.681723,127.79529 32.7749788,127.699351 32.7749788,127.581004 C32.7749788,127.462658 32.681723,127.366719 32.5666862,127.366719 L32.5666862,127.366719 Z M32.5666862,128.22279 L30.4871444,128.22279 L30.4871444,128.22279 C30.3721077,128.22279 30.2788518,128.318729 30.2788518,128.437076 C30.2788518,128.555423 30.3721077,128.651362 30.4871444,128.651362 L32.5666862,128.651362 L32.5666862,128.651362 C32.681723,128.651362 32.7749788,128.555423 32.7749788,128.437076 C32.7749788,128.318729 32.681723,128.22279 32.5666862,128.22279 L32.5666862,128.22279 Z M31.901246,125 C32.1713262,125 32.4299225,125.109245 32.6182007,125.30288 L32.6182007,125.30288 L33.7169547,126.432897 C33.8984565,126.619563 34,126.869657 34,127.130017 L34,127.130017 L34,130.5 C34,130.776142 33.7761424,131 33.5,131 L33.5,131 L29.5,131 C29.2238576,131 29,130.776142 29,130.5 L29,130.5 L29,125.5 C29,125.223858 29.2238576,125 29.5,125 L29.5,125 Z M32.1154071,125.428571 L29.4165853,125.428571 L29.4165853,130.571429 L33.5834147,130.571429 L33.5834147,126.936741 L32.6154071,126.936741 C32.3392648,126.936741 32.1154071,126.712883 32.1154071,126.436741 L32.1154071,126.436741 L32.1154071,125.428571 Z M32.5666862,129.078862 C32.681723,129.078862 32.7749788,129.174801 32.7749788,129.293147 C32.7749788,129.411494 32.681723,129.507433 32.5666862,129.507433 L32.5666862,129.507433 L30.4871444,129.507433 C30.3721077,129.507433 30.2788518,129.411494 30.2788518,129.293147 C30.2788518,129.174801 30.3721077,129.078862 30.4871444,129.078862 L30.4871444,129.078862 Z M32.5319924,125.820246 L32.5319924,126.50817 L33.2010024,126.50817 L32.5319924,125.820246 Z" id="代码文件"></path>
        </g>
    </g>
</svg>