<?xml version="1.0" encoding="UTF-8"?>
<svg width="12px" height="12px" viewBox="0 0 12 12" version="1.1" xmlns="http://www.w3.org/2000/svg" xmlns:xlink="http://www.w3.org/1999/xlink">
    <!-- Generator: Sketch 63 (92445) - https://sketch.com -->
    <title>控制面板</title>
    <desc>Created with Sketch.</desc>
    <g id="页面-1" stroke="none" stroke-width="1" fill="none" fill-rule="evenodd">
        <g id="控制面板——连接状态备份" transform="translate(-24.000000, -81.000000)" fill-rule="nonzero">
            <g id="控制面板" transform="translate(24.000000, 81.000000)">
                <path d="M6.00000731,11.8666849 C2.76024573,11.8666849 0.133329729,9.2397689 0.133329729,6.00000731 C0.133329729,2.76024573 2.76024573,0.133329729 6.00000731,0.133329729 C9.2397689,0.133329729 11.8666849,2.76024573 11.8666849,6.00000731 C11.8666849,9.2397689 9.2397689,11.8666849 6.00000731,11.8666849 Z M6.00000731,11.0848983 C8.80762554,11.0848983 11.0848983,8.80893915 11.0848983,6.00000731 C11.0848983,3.19107547 8.80762554,0.915116353 6.00000731,0.915116353 C3.19238909,0.915116353 0.915116353,3.19238909 0.915116353,6.00000731 C0.915116353,8.80762554 3.19238909,11.0848983 6.00000731,11.0848983 Z" id="形状" fill="#F0F0F0"></path>
                <g id="编组-2" transform="translate(2.000000, 2.000000)" fill="#F3F3F3">
                    <polyline id="路径" points="2.66666667 1.77777778 4.00167294 0 5.33333333 1.77777778"></polyline>
                    <polyline id="路径" points="6.22222222 2.66666667 8 4.00167294 6.22222222 5.33333333"></polyline>
                    <polyline id="路径" points="5.33333333 6.22222222 3.99832706 8 2.66666667 6.22222222"></polyline>
                    <polyline id="路径" points="1.77777778 5.33333333 0 3.99832706 1.77777778 2.66666667"></polyline>
                </g>
            </g>
        </g>
    </g>
</svg>