<svg xmlns="http://www.w3.org/2000/svg" viewBox="0 0 67.1 74.72"><defs><style>.cls-1{fill:#10386d;}</style></defs><title>资源 5</title><g id="图层_2" data-name="图层 2"><g id="图层_1-2" data-name="图层 1"><path class="cls-1" d="M63,15.64,37.62,1a9,9,0,0,0-8.14,0L4.07,15.64A9,9,0,0,0,0,22.69V52a9,9,0,0,0,4.07,7L29.48,73.76a9,9,0,0,0,8.14,0L63,59.08a9,9,0,0,0,4.07-7V22.69A9,9,0,0,0,63,15.64ZM23.32,32.89V52.76l-6-3.45a5,5,0,0,1-2.23-3.88V29.29a5,5,0,0,1,2.23-3.87l14-8.07a5,5,0,0,1,4.48,0l6,3.45L24.56,30.74A2.75,2.75,0,0,0,23.32,32.89ZM52,45.43a5,5,0,0,1-2.23,3.88l-14,8.07a5,5,0,0,1-4.48,0l-6-3.46L42.54,44a2.75,2.75,0,0,0,1.24-2.15V22l6,3.46A5,5,0,0,1,52,29.29Z"/></g></g></svg>