<?xml version="1.0" encoding="UTF-8"?>
<svg width="8px" height="9px" viewBox="0 0 8 9" version="1.1" xmlns="http://www.w3.org/2000/svg" xmlns:xlink="http://www.w3.org/1999/xlink">
    <!-- Generator: Sketch 63 (92445) - https://sketch.com -->
    <title>案例</title>
    <desc>Created with Sketch.</desc>
    <g id="页面-1" stroke="none" stroke-width="1" fill="none" fill-rule="evenodd">
        <g id="控制面板——连接状态备份" transform="translate(-39.000000, -112.000000)" fill="#F0F0F0" fill-rule="nonzero" stroke="#F0F0F0" stroke-width="0.1">
            <g id="案例" transform="translate(40.000000, 112.000000)">
                <path d="M6.87110527,0.626670726 C6.82809618,0.336270388 6.64912275,0.192537174 6.33141121,0.192537174 L0.559875677,0.192537174 C0.428073993,0.192537174 0.324019818,0.218937205 0.249100811,0.271737266 C0.0881639583,0.358270414 0.00630746521,0.525470608 0.00630746521,0.774804805 L0.00630746521,7.37481248 C0.00630746521,7.76347989 0.19221732,7.95708012 0.559875677,7.96001317 L6.33557338,7.96001317 C6.70045642,7.95561316 6.88220492,7.76347989 6.88220492,7.37481248 L6.88220492,0.774804805 C6.88220492,0.726404748 6.87804275,0.680937742 6.87110583,0.638404646 L6.87110583,0.626671327 L6.87110527,0.626670726 Z M6.4035549,0.66040407 L5.84998669,1.46853806 L1.22165698,1.46853806 L0.718034771,0.644270145 L6.33279806,0.644270145 C6.36054581,0.645736816 6.38551882,0.650136821 6.4035549,0.660403468 L6.4035549,0.66040407 Z M6.13162639,1.82787496 L6.4535009,1.36000746 L6.4535009,7.37481446 C6.4535009,7.46134761 6.41465399,7.50388156 6.3314104,7.50681461 L0.559874864,7.50681461 C0.478019184,7.50241461 0.435009854,7.46134787 0.435009854,7.37481446 L0.435009854,1.01973753 L0.920595733,1.81760542 C0.941406569,1.85133876 0.966379571,1.87773879 0.999676907,1.89680551 C1.03158683,1.91147222 1.06349683,1.92320554 1.10373108,1.92320554 L5.96097998,1.92320554 C5.9928899,1.92320554 6.02896207,1.9158722 6.05809748,1.89680551 C6.08862006,1.88067219 6.11359307,1.85867216 6.13162907,1.82787212 L6.13162639,1.82787496 Z" id="形状"></path>
                <path d="M1.55047386,2.86773427 C1.59348295,2.90880101 1.6434292,2.93226765 1.70447404,2.93226765 L5.18127359,2.93226765 C5.24231868,2.93226765 5.29503976,2.91026763 5.33527377,2.86773427 C5.37828286,2.82226752 5.39631886,2.7650672 5.39631886,2.70493408 C5.39631886,2.6404007 5.37828277,2.5876009 5.33527377,2.5465339 C5.29642685,2.50106715 5.24231844,2.47906712 5.18127359,2.47906712 L1.70447404,2.47906712 C1.64342895,2.47906712 1.59348319,2.50106715 1.55047386,2.5465339 C1.51162694,2.58760064 1.48942877,2.64040096 1.48942877,2.70493408 C1.48942877,2.76506746 1.51023961,2.82226727 1.55047386,2.86773427 Z M1.70447404,3.76680485 C1.64342895,3.76680485 1.59348319,3.78880487 1.55047386,3.83133823 C1.51162694,3.87680498 1.48942877,3.9296053 1.48942877,3.99413842 C1.48942877,4.05427179 1.51023961,4.1114716 1.55047386,4.1525386 C1.59348295,4.19800535 1.6434292,4.22000538 1.70447404,4.22000538 L5.18127359,4.22000538 C5.24231868,4.22000538 5.29503976,4.19800535 5.33527377,4.1525386 C5.37828286,4.11147186 5.39631886,4.05427153 5.39631886,3.99413842 C5.39631886,3.92960504 5.37828277,3.87680523 5.33527377,3.83133823 C5.29642685,3.79027149 5.24231844,3.76680485 5.18127359,3.76680485 L1.70447404,3.76680485 L1.70447404,3.76680485 Z M5.33527377,5.11907595 C5.29642685,5.07360921 5.24231844,5.05160918 5.18127359,5.05160918 L1.70447404,5.05160918 C1.64342895,5.05160918 1.59348319,5.07360921 1.55047386,5.11907595 C1.51162694,5.1645427 1.48942877,5.21734302 1.48942877,5.27747614 C1.48942877,5.34200952 1.51023961,5.39480932 1.55047386,5.44027633 C1.59348295,5.48574308 1.6434292,5.50480971 1.70447404,5.50480971 L5.18127359,5.50480971 C5.24231868,5.50480971 5.29503976,5.48574299 5.33527377,5.44027633 C5.37828286,5.39480958 5.39631886,5.34200926 5.39631886,5.27747614 C5.39493147,5.21734276 5.37828277,5.16454296 5.33527377,5.11907595 Z M5.33527377,6.40680792 C5.29642685,6.36574118 5.24231844,6.34227454 5.18127359,6.34227454 L1.70447404,6.34227454 C1.64342895,6.34227454 1.59348319,6.36427457 1.55047386,6.40680792 C1.51162694,6.45227467 1.48942877,6.50507499 1.48942877,6.56960811 C1.48942877,6.63414149 1.51023961,6.68694129 1.55047386,6.72800829 C1.59348295,6.77347504 1.6434292,6.79547507 1.70447404,6.79547507 L5.18127359,6.79547507 C5.24231868,6.79547507 5.29503976,6.77347504 5.33527377,6.72800829 C5.37828286,6.68694155 5.39631886,6.63414123 5.39631886,6.56960811 C5.39493147,6.50507473 5.37828277,6.45227493 5.33527377,6.40680792 Z" id="形状"></path>
            </g>
        </g>
    </g>
</svg>