<?xml version="1.0" encoding="UTF-8"?>
<svg width="12px" height="12px" viewBox="0 0 12 12" version="1.1" xmlns="http://www.w3.org/2000/svg" xmlns:xlink="http://www.w3.org/1999/xlink">
    <!-- Generator: Sketch 63 (92445) - https://sketch.com -->
    <title>帮助文档</title>
    <desc>Created with Sketch.</desc>
    <g id="页面-1" stroke="none" stroke-width="1" fill="none" fill-rule="evenodd">
        <g id="控制面板——连接状态备份" transform="translate(-25.000000, -96.000000)" fill="#F0F0F0" fill-rule="nonzero">
            <g id="帮助文档" transform="translate(25.000000, 96.000000)">
                <path d="M6.00000731,11.8666849 C2.76024573,11.8666849 0.133329729,9.2397689 0.133329729,6.00000731 C0.133329729,2.76024573 2.76024573,0.133329729 6.00000731,0.133329729 C9.2397689,0.133329729 11.8666849,2.76024573 11.8666849,6.00000731 C11.8666849,9.2397689 9.2397689,11.8666849 6.00000731,11.8666849 Z M6.00000731,11.0848983 C8.80762554,11.0848983 11.0848983,8.80893915 11.0848983,6.00000731 C11.0848983,3.19107547 8.80762554,0.915116353 6.00000731,0.915116353 C3.19238909,0.915116353 0.915116353,3.19238909 0.915116353,6.00000731 C0.915116353,8.80762554 3.19238909,11.0848983 6.00000731,11.0848983 Z M6.15190816,3.13214683 C6.6861945,3.13214683 7.11965147,3.27357557 7.45358043,3.5747623 C7.78750939,3.86679055 7.9538232,4.2675053 7.9538232,4.76774807 C7.9538232,5.17631997 7.84512442,5.51810608 7.63690989,5.78524925 C7.56226694,5.87690784 7.327866,6.09429314 6.93632202,6.43607925 C6.77786536,6.56965083 6.6613217,6.72025034 6.58536514,6.86953623 C6.49369427,7.03583776 6.45179355,7.22048083 6.45179355,7.42083821 L6.45179355,7.56226694 L5.55869318,7.56226694 L5.55869318,7.42083821 C5.55869318,7.11179432 5.60846333,6.84465115 5.72500699,6.62857947 C5.8336935,6.39547987 6.15060682,6.05239242 6.66786523,5.59405037 L6.80929397,5.43560599 C6.95989348,5.24310576 7.04239357,5.04404973 7.04239357,4.82667671 C7.04239357,4.53464847 6.95857986,4.30940602 6.8001232,4.14310448 C6.63382167,3.97679067 6.3915513,3.89297696 6.09036456,3.89297696 C5.71453488,3.89297696 5.43953456,4.0095329 5.27322075,4.25179099 C5.12262125,4.45214837 5.0479783,4.73631946 5.0479783,5.10297837 L4.17190586,5.10297837 C4.17190586,4.49404909 4.34739044,4.01869139 4.6970337,3.66774679 C5.05060554,3.30761914 5.53512173,3.13214683 6.15190816,3.13214683 L6.15190816,3.13214683 Z M6.00262227,8.01275184 C6.17810685,8.01275184 6.32739274,8.06250971 6.44525002,8.17905338 C6.56179368,8.28775216 6.62072232,8.4291809 6.62072232,8.6046532 C6.62072232,8.7801255 6.55393653,8.92155424 6.43739287,9.03811018 C6.32083693,9.14679669 6.1702497,9.20441171 6.00393589,9.20441171 C5.83762208,9.20441171 5.68703485,9.14548307 5.57047891,9.02893941 C5.45393525,8.91239575 5.39500661,8.76965339 5.39500661,8.60333958 C5.39500661,8.42786728 5.45393525,8.28643855 5.57047891,8.17775204 C5.68440762,8.06250971 5.83500712,8.01275184 6.00262227,8.01275184 L6.00262227,8.01275184 Z" id="形状"></path>
            </g>
        </g>
    </g>
</svg>