<?xml version="1.0" encoding="UTF-8"?>
<svg width="12px" height="11px" viewBox="0 0 12 11" version="1.1" xmlns="http://www.w3.org/2000/svg" xmlns:xlink="http://www.w3.org/1999/xlink">
    <!-- Generator: Sketch 63 (92445) - https://sketch.com -->
    <title>安装</title>
    <desc>Created with Sketch.</desc>
    <g id="页面-1" stroke="none" stroke-width="1" fill="none" fill-rule="evenodd">
        <g id="控制面板——连接状态备份" transform="translate(-26.000000, -112.000000)" fill="#F0F0F0" fill-rule="nonzero">
            <path d="M34.3347394,112.114587 C34.6340551,112.114587 34.8586872,112.187448 35.0830293,112.333448 L36.504634,113.8663 C36.5796077,113.8663 36.5796077,113.939443 36.5796077,113.939443 C36.9536069,114.158299 37.178239,114.523156 37.178239,114.961442 L37.178239,121.01973 C37.178239,121.60373 36.6542912,122.114587 36.0556599,122.114587 L27.3008181,122.114587 C26.7021868,122.114587 26.178239,121.60373 26.178239,121.01973 L26.178239,114.961442 C26.178239,114.523442 26.4028711,114.158586 26.8518439,113.939443 L26.926528,113.8663 L28.4231062,112.406301 C28.572764,112.187729 28.8720804,112.114587 29.1713961,112.114587 L34.3347394,112.114587 Z M36.0556628,114.5963 L27.300821,114.5963 C27.0761889,114.5963 26.9265318,114.7423 26.9265318,114.961443 L26.9265318,121.019731 C26.9265318,121.238588 27.0761896,121.384588 27.300821,121.384588 L36.0556628,121.384588 C36.280295,121.384588 36.429952,121.238874 36.429952,121.019731 L36.429952,114.961443 C36.429952,114.7423 36.2802942,114.5963 36.0556628,114.5963 Z M31.7158707,115.326299 C31.9405028,115.326299 32.0901598,115.472014 32.0901598,115.691157 L32.0901598,118.464863 L33.3621075,117.29715 L33.3621074,117.29715 C33.5022645,117.154345 33.7331742,117.150723 33.8778578,117.28906 C33.8806333,117.291713 33.8833659,117.29441 33.8860545,117.29715 C34.0357123,117.442864 34.0357123,117.662007 33.8110808,117.808007 L31.9404973,119.559722 C31.8655236,119.632865 31.7908395,119.705722 31.6411817,119.705722 C31.4915239,119.705722 31.4165495,119.632864 31.341866,119.560007 L29.4709925,117.808007 C29.3213347,117.662292 29.3213347,117.44315 29.4709925,117.297149 L29.4709925,117.297149 C29.6111495,117.154344 29.8420592,117.150722 29.9867428,117.289059 C29.9895183,117.291713 29.9922509,117.29441 29.9949396,117.297149 L31.3418607,118.464863 L31.3418607,115.691156 C31.3418607,115.4723 31.4915185,115.326299 31.7158599,115.326299 L31.7158707,115.326299 Z M34.2603368,112.844591 L29.0964218,112.844591 C29.0214481,112.844591 28.946764,112.844591 28.8717896,112.917449 L27.8991577,113.866305 L35.3820565,113.866305 L34.4841095,112.917735 C34.4091358,112.844591 34.3344517,112.844591 34.2594774,112.844591 L34.2603368,112.844591 Z" id="安装..."></path>
        </g>
    </g>
</svg>