<?xml version="1.0" encoding="UTF-8"?>
<svg width="54px" height="43px" viewBox="0 0 54 43" version="1.1" xmlns="http://www.w3.org/2000/svg" xmlns:xlink="http://www.w3.org/1999/xlink">
    <!-- Generator: Sketch 64 (93537) - https://sketch.com -->
    <title>magicion备份</title>
    <desc>Created with Sketch.</desc>
    <defs>
        <polygon id="path-1" points="0.221014735 0.55972093 13.6903451 0.55972093 13.6903451 7.4747814 0.221014735 7.4747814"></polygon>
        <polygon id="path-3" points="0 43.440586 53.0066038 43.440586 53.0066038 1.02356279 0 1.02356279"></polygon>
    </defs>
    <g id="页面-1" stroke="none" stroke-width="1" fill="none" fill-rule="evenodd">
        <g id="控制面板——默认未连接状态" transform="translate(-161.000000, -279.000000)">
            <g id="magicion备份" transform="translate(188.000000, 300.000000) scale(-1, 1) translate(-188.000000, -300.000000) translate(161.000000, 278.000000)">
                <path d="M50.0085849,25.3325395 L50.0085849,30.2810047 C50.0085849,30.3546791 49.9892264,30.4467721 49.9719057,30.5388651 C49.9525472,30.6135628 49.9158679,30.7056558 49.8791887,30.7793302 C49.8058302,30.9450977 49.6774528,31.0750512 49.529717,31.1855628 C49.3646604,31.2960744 49.1812642,31.3697488 48.9785094,31.4260279 C48.7400943,31.4812837 48.5006604,31.5181209 48.2612264,31.5181209 L38.112283,31.5181209 C37.9839057,31.5181209 37.8555283,31.4997023 37.7454906,31.4997023 C37.634434,31.4812837 37.5243962,31.4628651 37.4326981,31.4444465 C37.2493019,31.3881674 37.0832264,31.314493 36.9365094,31.2039814 C36.8071132,31.1118884 36.7154151,30.9819349 36.6420566,30.834586 C36.5870377,30.6504 36.5503585,30.4651907 36.5503585,30.2810047 L36.5503585,25.3325395 C36.5503585,25.2588651 36.5686981,25.1657488 36.5870377,25.0736558 C36.6053774,24.9999814 36.623717,24.926307 36.6603962,24.8526326 C36.7347736,24.6858419 36.8437925,24.5569116 36.9731887,24.4453767 C37.1209245,24.3348651 37.2859811,24.2427721 37.4693774,24.1875163 C37.6894528,24.1322605 37.8922075,24.1138419 38.112283,24.1138419 L48.2612264,24.1138419 C48.4089623,24.1138419 48.5373396,24.1138419 48.6667358,24.1322605 C48.7951132,24.1322605 48.9051509,24.1690977 49.0151887,24.1875163 C49.1996038,24.2427721 49.383,24.3164465 49.5490755,24.4279814 C49.6947736,24.5200744 49.8058302,24.6674233 49.8791887,24.8157953 C49.9719057,24.9815628 50.0085849,25.1657488 50.0085849,25.3325395" id="Fill-1" fill="#F0F0F0"></path>
                <path d="M51.3876226,23.3009674 L38.4072453,23.3009674 C37.7816604,23.3009674 36.9736981,23.3562233 36.4031321,23.7072 C35.832566,24.0581767 35.5574717,24.6864558 35.5381132,25.3137116 C35.5207925,25.3689674 35.5207925,25.4242233 35.5207925,25.4794791 L35.5207925,33.0321302 L32.909434,33.0321302 L32.909434,30.5763163 L33.1672075,30.5763163 C33.2222264,30.5763163 33.2589057,30.4463628 33.2589057,30.4095256 C33.2782642,30.3542698 33.2955849,30.2805953 33.3149434,30.2253395 C33.3322642,30.0964093 33.3322642,29.9664558 33.3322642,29.8375256 L33.3322642,25.4794791 C33.3322642,25.111107 33.4239623,24.7417116 33.6083774,24.4091535 C33.7184151,24.1686884 33.8834717,23.9476651 34.0678868,23.7440372 C34.2706415,23.5598512 34.5100755,23.3746419 34.7484906,23.2641302 C34.8035094,23.2088744 34.8768679,23.1904558 34.9329057,23.1536186 C35.0429434,23.0983628 35.1519623,23.0615256 35.2630189,23.0236651 C35.3190566,23.0052465 35.3730566,22.9868279 35.4290943,22.9684093 C35.5941509,22.9315721 35.7592075,22.8947349 35.9242642,22.8763163 C36.4948302,22.8210605 37.0470566,22.7842233 37.6166038,22.7842233 C38.4255849,22.7658047 39.234566,22.747386 40.0435472,22.747386 C40.7598113,22.7289674 41.4587547,22.7289674 42.1576981,22.7289674 C42.783283,22.7289674 43.3895094,22.7289674 43.9957358,22.747386 C44.7496981,22.7289674 45.4853208,22.747386 46.2209434,22.7658047 L46.7171321,22.7658047 C47.3416981,22.7842233 47.9683019,22.8210605 48.5928679,22.8394791 C48.7395849,22.8578977 48.8679623,22.8578977 48.9963396,22.8578977 C49.070717,22.8578977 49.1257358,22.8578977 49.2001132,22.8394791 C49.2367925,22.8394791 49.2734717,22.8394791 49.3091321,22.8210605 C49.3091321,22.8210605 49.3824906,22.7842233 49.4018491,22.7842233 C49.842,22.8578977 50.2841887,22.9684093 50.7070189,23.0799442 C50.945434,23.1536186 51.1665283,23.2088744 51.3876226,23.3009674" id="Fill-3" fill="#F0F0F0"></path>
                <path d="M10.8478868,21.6022605 C10.2223019,22.1752837 9.26558491,22.1374233 8.6970566,21.528586 C8.12649057,20.9197488 8.16316981,19.940493 8.77041509,19.368493 C9.37664151,18.7954698 10.3323396,18.832307 10.9202264,19.4421674 C11.4907925,20.0510047 11.4541132,21.0302605 10.8478868,21.6022605 M23.6988679,6.11016744 C23.8099245,5.3908186 24.0850189,4.70728372 24.4711698,4.13528372 C24.4344906,4.17212093 24.3978113,4.19053953 24.3611321,4.22737674 C23.790566,4.76253953 23.2210189,5.29770233 22.6504528,5.83388837 C22.3376604,6.12858605 22.0258868,6.42430698 21.7130943,6.72002791 C21.438,6.97788837 21.1618868,7.23677209 20.867434,7.51407442 C20.9041132,7.62458605 20.9224528,7.73509767 20.9224528,7.84663256 C20.9224528,8.0308186 20.9041132,8.19658605 20.867434,8.38179535 C20.8490943,8.43705116 20.8307547,8.49230698 20.8124151,8.54756279 C20.6290189,9.12058605 20.3162264,9.63733023 19.8740377,10.0435628 C17.1169811,12.6098884 14.3772453,15.1956558 11.6375094,17.7804 C11.6008302,17.7988186 11.5641509,17.8356558 11.5274717,17.872493 C11.4724528,17.8909116 11.4357736,17.9277488 11.3990943,17.9461674 C11.3073962,18.0014233 11.2146792,18.0392837 11.1046415,18.0761209 C10.9395849,18.1313767 10.7378491,18.168214 10.553434,18.2050512 C10.460717,18.2234698 10.3690189,18.2234698 10.2956604,18.2418884 L10.2773208,18.2418884 C10.1306038,18.260307 9.96554717,18.260307 9.81781132,18.2787256 C9.76279245,18.2971442 9.68841509,18.2971442 9.63441509,18.3155628 C9.52335849,18.3339814 9.41332075,18.3339814 9.32162264,18.3708186 C8.77041509,18.5007721 8.29154717,18.832307 7.99709434,19.2764 C7.722,19.6826326 7.59362264,20.1809581 7.64762264,20.6977023 C7.75867925,21.7874698 8.64101887,22.6183535 9.72509434,22.6551907 L10.0022264,22.6551907 C10.2589811,22.6551907 10.5167547,22.6551907 10.7745283,22.6183535 C10.8835472,22.5999349 10.9946038,22.5815163 11.1046415,22.5620744 L11.3257358,22.5068186 C11.417434,22.4884 11.5091321,22.4699814 11.6008302,22.4331442 C11.7658868,22.396307 11.9319623,22.3226326 12.0796981,22.2673767 C12.2447547,22.1937023 12.3924906,22.1190047 12.5208679,22.0269116 C12.6675849,21.9348186 12.7959623,21.8427256 12.9070189,21.7311907 C12.9436981,21.7127721 12.9803774,21.6759349 12.9976981,21.6575163 C15.0578491,19.7194698 17.1353208,17.7804 19.1944528,15.8413302 C20.2795472,14.8262605 21.3636226,13.8101674 22.4303774,12.7950977 C23.0366038,12.2415163 23.6438491,11.668493 24.2317358,11.1138884 C24.5445283,10.8191907 24.8573208,10.5418884 25.1701132,10.2287721 C25.1701132,10.2287721 25.187434,10.2287721 25.187434,10.2103535 C24.0483396,9.19426047 23.4961132,7.66142326 23.6988679,6.11016744" id="Fill-5" fill="#F0F0F0"></path>
                <path d="M53.005483,33.5960465 L53.005483,41.4792093 C53.005483,41.7902791 52.7538226,42.0430233 52.4430679,42.0430233 L31.8894453,42.0430233 C31.5807283,42.0430233 31.3290679,41.7902791 31.3290679,41.4792093 L31.3290679,33.5960465 C31.3290679,33.2839535 31.5807283,33.0322326 31.8894453,33.0322326 L52.4430679,33.0322326 C52.7538226,33.0322326 53.005483,33.2839535 53.005483,33.5960465" id="Fill-7" fill="#F0F0F0"></path>
                <path d="M29.3794642,8.84348837 C29.5088604,9.06451163 29.6372377,9.30497674 29.7656151,9.526 C29.1777283,9.84013953 28.5521434,9.95167442 27.945917,9.87697674 C27.8542189,9.85855814 27.7441811,9.84013953 27.6514642,9.82172093 C27.228634,9.74804651 26.842483,9.56386047 26.4930113,9.32339535 C26.3829736,9.23130233 26.2729358,9.15762791 26.1628981,9.04609302 C26.0701811,8.9724186 25.978483,8.88032558 25.9051245,8.76981395 C25.8134264,8.67669767 25.7573887,8.58460465 25.7033887,8.49251163 C25.5923321,8.3635814 25.5189736,8.2152093 25.4456151,8.04944186 C25.3712377,7.88367442 25.3172377,7.71688372 25.2612,7.53269767 C25.1511623,7.08962791 25.1328226,6.64655814 25.2245208,6.24032558 C25.2245208,6.1472093 25.2428604,6.05511628 25.2805585,5.96302326 C25.3172377,5.81567442 25.353917,5.66730233 25.4272755,5.53837209 C25.4822943,5.40944186 25.5373132,5.27948837 25.6106717,5.16897674 C25.6473509,5.11372093 25.6840302,5.05846512 25.7207094,5.0032093 C25.7940679,4.91009302 25.8684453,4.7995814 25.9418038,4.72590698 C26.0151623,4.63381395 26.1068604,4.55911628 26.1802189,4.46702326 C26.1995774,4.44860465 26.2362566,4.43018605 26.2545962,4.41176744 C26.3829736,4.30125581 26.5296906,4.19074419 26.695766,4.09762791 C26.842483,4.00553488 26.9892,3.93186047 27.1369358,3.87660465 C27.3019925,3.80293023 27.4680679,3.74767442 27.6331245,3.72823256 C27.8348604,3.67297674 28.0559547,3.65455814 28.2770491,3.65455814 C29.1777283,3.65455814 30.0233887,4.02395349 30.6112755,4.68906977 C30.151766,5.04004651 29.8216528,5.51995349 29.673917,6.09195349 L29.673917,6.11037209 C29.6555774,6.16562791 29.6372377,6.20246512 29.6372377,6.25874419 C29.6005585,6.35083721 29.5822189,6.44293023 29.5638792,6.53502326 C29.5088604,6.75706977 29.4355019,6.97809302 29.3794642,7.20013953 C29.3244453,7.38432558 29.287766,7.56953488 29.2327472,7.75372093 C29.1410491,8.12311628 29.1777283,8.51093023 29.3794642,8.84348837" id="Fill-9" fill="#D1D1D1"></path>
                <path d="M32.670917,4.19043721 C32.4131434,4.1536 32.1197094,4.1351814 31.8435962,4.1720186 C31.3830679,4.24569302 30.9602377,4.41146047 30.6117849,4.68876279 C30.0228792,4.02364651 29.1772189,3.65527442 28.2775585,3.65527442 C28.0564642,3.65527442 27.8353698,3.67369302 27.633634,3.72894884 C27.4492189,3.76578605 27.301483,3.80262326 27.1364264,3.87629767 C26.9897094,3.93155349 26.8419736,4.00522791 26.6962755,4.09834419 C26.5302,4.1720186 26.3824642,4.28253023 26.2540868,4.41146047 C26.236766,4.42987907 26.1990679,4.44829767 26.1807283,4.46773953 C26.1073698,4.55983256 26.0156717,4.63350698 25.9423132,4.7256 C25.8679358,4.79927442 25.7945774,4.9108093 25.7212189,5.00290233 C25.6845396,5.05815814 25.6468415,5.11341395 25.6101623,5.16866977 C25.5368038,5.2791814 25.4817849,5.40913488 25.4277849,5.53806512 C25.3534075,5.66699535 25.3167283,5.81536744 25.2800491,5.96271628 C25.2433698,6.0548093 25.2240113,6.14792558 25.2240113,6.2400186 C25.1333321,6.64625116 25.1506528,7.08932093 25.2617094,7.5323907 C25.3167283,7.71657674 25.3717472,7.88336744 25.4451057,8.04913488 C25.5184642,8.19750698 25.5928415,8.34485581 25.7028792,8.49322791 C25.7578981,8.58429767 25.8139358,8.67741395 25.9046151,8.76950698 C25.9789925,8.8800186 26.0696717,8.97313488 26.1623887,9.0468093 C26.2734453,9.15732093 26.3824642,9.23099535 26.4935208,9.32411163 C26.8419736,9.56355349 27.2281245,9.74876279 27.6509547,9.82141395 C27.7436717,9.83983256 27.8537094,9.85927442 27.9454075,9.87769302 C28.5526528,9.95136744 29.1772189,9.83983256 29.7651057,9.52671628 C29.9495208,9.85927442 30.1512566,10.173414 30.3173321,10.4865302 C30.3917094,10.6154605 30.4650679,10.7269953 30.5200868,10.837507 C30.2439736,10.9858791 29.9495208,11.1148093 29.6560868,11.1884837 C29.0855208,11.3921116 28.4966151,11.4473674 27.9087283,11.373693 C27.5052566,11.3542512 27.1191057,11.2805767 26.7319358,11.1516465 C26.3651434,11.0042977 25.9963132,10.8190884 25.6662,10.5970419 C25.5001245,10.4865302 25.3350679,10.3576 25.1873321,10.2102512 C24.0482377,9.19415814 23.4960113,7.66234419 23.698766,6.11006512 C23.8098226,5.39071628 24.084917,4.7071814 24.4710679,4.1351814 C24.562766,4.00522791 24.6544642,3.89471628 24.7645019,3.78420465 C24.7645019,3.76578605 24.7645019,3.74736744 24.8011811,3.74736744 C24.8388792,3.67369302 24.8938981,3.61741395 24.9672566,3.56215814 C25.0222755,3.48848372 25.095634,3.43322791 25.1700113,3.37797209 C25.2983887,3.2111814 25.4451057,3.10066977 25.6101623,2.99015814 C25.7212189,2.89806512 25.8506151,2.8243907 25.9789925,2.76811163 C26.236766,2.60234419 26.5302,2.47341395 26.8246528,2.36187907 C28.4792943,1.80829767 30.3173321,2.25136744 31.567483,3.48848372 C31.8986151,3.82104186 32.2480868,4.04206512 32.670917,4.19043721" id="Fill-11" fill="#DDDDDD"></path>
                <path d="M10.8478868,21.6022605 C10.2223019,22.1752837 9.26558491,22.1374233 8.6970566,21.528586 C8.12649057,20.9197488 8.16316981,19.940493 8.77041509,19.368493 C9.37664151,18.7954698 10.3323396,18.832307 10.9202264,19.4421674 C11.4907925,20.0510047 11.4541132,21.0302605 10.8478868,21.6022605" id="Fill-13" fill="#D1D1D1"></path>
                <path d="M26.731834,11.1513395 C22.5768906,15.0478977 17.9440981,19.4049209 13.7891547,23.3014791 C13.6047396,22.8389674 13.1268906,22.5074326 12.5940226,22.5074326 L11.3255321,22.5074326 C11.4172302,22.489014 11.5099472,22.4705953 11.6006264,22.4327349 C11.7667019,22.3958977 11.9327774,22.3222233 12.0794943,22.2669674 C12.2445509,22.193293 12.3922868,22.1196186 12.5206642,22.0265023 C12.6673811,21.9354326 12.7957585,21.8423163 12.9068151,21.7318047 C12.9434943,21.713386 12.9801736,21.6765488 12.9985132,21.6581302 C15.0576453,19.7190605 17.135117,17.7799907 19.1952679,15.8409209 C20.2793434,14.8258512 21.3634189,13.8107814 22.4301736,12.7946884 C23.0364,12.241107 23.6436453,11.6680837 24.2315321,11.1145023 C24.5453434,10.8187814 24.857117,10.5425023 25.1699094,10.2283628 C25.1699094,10.2283628 25.1872302,10.2283628 25.1872302,10.2099442 C25.334966,10.357293 25.5000226,10.4872465 25.6660981,10.5967349 C25.9962113,10.8187814 26.3650415,11.0039907 26.731834,11.1513395" id="Fill-15" fill="#D1D1D1"></path>
                <path d="M50.0085849,30.2809023 C50.0085849,30.3545767 49.9892264,30.4466698 49.9719057,30.5387628 C49.9525472,30.6134605 49.9158679,30.7055535 49.8791887,30.7792279 C49.8058302,30.9449953 49.6774528,31.0749488 49.529717,31.1854605 C49.3646604,31.2959721 49.1812642,31.3696465 48.9785094,31.4259256 C48.7400943,31.4811814 48.5006604,31.5180186 48.2612264,31.5180186 L38.112283,31.5180186 C37.9839057,31.5180186 37.8555283,31.4996 37.7454906,31.4996 C37.634434,31.4811814 37.5243962,31.4627628 37.4326981,31.4443442 C37.2493019,31.3890884 37.0832264,31.3143907 36.9365094,31.2038791 C36.8071132,31.111786 36.7154151,30.9828558 36.6420566,30.8344837 C36.5870377,30.6502977 36.5503585,30.4650884 36.5503585,30.2809023 L36.5503585,25.3324372 C36.5503585,25.2587628 36.5686981,25.1656465 36.5870377,25.0735535 C36.6053774,24.9998791 36.623717,24.9262047 36.6603962,24.8525302 C36.7347736,24.6857395 36.8437925,24.5568093 36.9731887,24.4452744 C37.1209245,24.3347628 37.2859811,24.2426698 37.4693774,24.187414 C37.6894528,24.1321581 37.8922075,24.1137395 38.112283,24.1137395 L48.2612264,24.1137395 C48.4089623,24.1137395 48.5373396,24.1137395 48.6667358,24.1321581 C48.7951132,24.1321581 48.9051509,24.1689953 49.0151887,24.187414 C49.1996038,24.2426698 49.383,24.3163442 49.5490755,24.4278791 C49.6947736,24.5199721 49.8058302,24.6673209 49.8791887,24.815693 C49.9719057,24.9814605 50.0085849,25.1656465 50.0085849,25.3324372 L50.0085849,30.2809023 Z M51.2770755,30.8897395 L50.3753774,30.8897395 L50.3753774,30.6687163 L51.2770755,30.6687163 L51.2770755,29.7262977 L50.3753774,29.7262977 L50.3753774,29.523693 L51.2770755,29.523693 L51.2770755,28.5638791 L50.3753774,28.5638791 L50.3753774,28.3602512 L51.2770755,28.3602512 L51.2770755,27.4188558 L50.3753774,27.4188558 L50.3753774,27.1968093 L51.2770755,27.1968093 L51.2770755,26.255414 L50.3753774,26.255414 L50.3753774,26.0343907 L51.2770755,26.0343907 L51.2770755,25.0919721 L50.3753774,25.0919721 L50.3753774,24.8709488 L51.2770755,24.8709488 L51.2770755,24.0400651 C51.3137547,23.9285302 51.3687736,23.8364372 51.4237925,23.7443442 L38.4067358,23.7443442 C38.0205849,23.7443442 37.6527736,23.7627628 37.2666226,23.8364372 C37.0098679,23.891693 36.7520943,23.9848093 36.5503585,24.1321581 C36.3486226,24.279507 36.2008868,24.463693 36.1081698,24.6857395 C36.0541698,24.815693 36.0174906,24.9262047 35.9981321,25.0735535 C35.9614528,25.203507 35.9431132,25.3508558 35.9431132,25.479786 L35.9431132,30.4282512 C35.9431132,31.2222977 36.6053774,31.8689953 37.3960189,31.8689953 L51.4237925,31.8689953 C51.3687736,31.7758791 51.3137547,31.683786 51.2770755,31.591693 L51.2770755,30.8897395 Z" id="Fill-17" fill="#FFFFFF"></path>
                <path d="M13.3661208,24.6490047 C12.9066113,25.0736558 12.1893283,25.0552372 11.7664981,24.5937488 C11.3436679,24.1322605 11.3620075,23.430307 11.821517,22.9872372 C12.2820453,22.562586 12.9799698,22.5994233 13.4211396,23.042493 C13.5138566,23.1540279 13.5872151,23.2829581 13.642234,23.4118884 L13.642234,23.430307 C13.8083094,23.8365395 13.6972528,24.3348651 13.3661208,24.6490047 M13.7889509,23.3013767 C13.6045358,22.8388651 13.1277057,22.5073302 12.5938189,22.5073302 L11.3253283,22.5073302 L11.104234,22.562586 C10.9941962,22.5810047 10.8831396,22.5994233 10.7741208,22.6178419 C10.5163472,22.6546791 10.2585736,22.6546791 10.0018189,22.6546791 L9.72570566,22.6546791 C8.64061132,22.6178419 7.7582717,21.7869581 7.64823396,20.698214 C7.59321509,20.1804465 7.72159245,19.6821209 7.99668679,19.2758884 C7.86830943,19.3127256 7.7582717,19.3127256 7.62989434,19.3127256 L6.08529057,19.3127256 L6.08529057,25.1289116 L12.5938189,25.1289116 C13.3111019,25.1289116 13.8989887,24.538493 13.8989887,23.8181209 C13.8989887,23.6329116 13.8623094,23.4671442 13.7889509,23.3013767" id="Fill-19" fill="#F0F0F0"></path>
                <path d="M13.3661208,24.6490047 C12.9066113,25.0736558 12.1893283,25.0552372 11.7664981,24.5937488 C11.3436679,24.1322605 11.3620075,23.430307 11.821517,22.9872372 C12.2820453,22.562586 12.9799698,22.5994233 13.4211396,23.042493 C13.5138566,23.1540279 13.5872151,23.2829581 13.642234,23.4118884 L13.642234,23.430307 C13.8083094,23.8365395 13.6972528,24.3348651 13.3661208,24.6490047" id="Fill-21" fill="#D1D1D1"></path>
                <g id="编组" transform="translate(22.415094, 0.463842)">
                    <mask id="mask-2" fill="white">
                        <use xlink:href="#path-1"></use>
                    </mask>
                    <g id="Clip-24"></g>
                    <path d="M13.4915434,7.45636279 L13.4732038,7.4747814 C13.363166,7.28957209 13.2704491,7.16064186 13.1604113,6.97645581 C12.7742604,6.31133953 12.4074679,5.66566512 12.021317,5.00054884 C11.6718453,4.37226977 11.1012792,3.9476186 10.440034,3.78185116 L10.4206755,3.78185116 C10.4033547,3.76343256 10.3839962,3.76343256 10.3666755,3.76343256 L10.347317,3.74501395 C10.3106377,3.74501395 10.2922981,3.72659535 10.2556189,3.72659535 C9.83278868,3.57822326 9.48331698,3.3572 9.15218491,3.02464186 C7.90305283,1.78752558 6.06399623,1.34445581 4.40935472,1.89803721 C4.11490189,2.00957209 3.82146792,2.13850233 3.56369434,2.30426977 C3.43531698,2.36054884 3.30592075,2.43422326 3.19588302,2.52631628 C3.02980755,2.63682791 2.88309057,2.74733953 2.75471321,2.91413023 C2.68135472,2.96938605 2.60697736,3.02464186 2.55297736,3.09831628 C2.4786,3.15357209 2.42358113,3.20985116 2.38690189,3.28352558 C2.34920377,3.28352558 2.34920377,3.30194419 2.34920377,3.32036279 C2.23916604,3.43087442 2.14746792,3.54138605 2.05576981,3.67133953 C2.01909057,3.70817674 1.98241132,3.72659535 1.94573208,3.76343256 C1.37516604,4.29859535 0.805618868,4.83375814 0.23505283,5.36994419 C0.198373585,5.03738605 0.23505283,4.70482791 0.327769811,4.39068837 C0.437807547,4.00287442 0.621203774,3.65292093 0.842298113,3.32036279 C1.1000717,2.95096744 1.39452453,2.6184093 1.70731698,2.32268837 C2.03743019,2.0279907 2.42358113,1.75068837 2.80973208,1.52966512 C3.58101509,1.06715349 4.44603396,0.790874419 5.32837358,0.66092093 C6.26573208,0.513572093 7.20410943,0.531990698 8.14146792,0.679339535 C9.07882642,0.809293023 9.99784528,1.08557209 10.8068264,1.54808372 C11.5057698,1.93487442 12.1313547,2.45264186 12.6275434,3.07989767 C13.1053925,3.70817674 13.4548642,4.44696744 13.6015811,5.22157209 C13.749317,5.96138605 13.7126377,6.7359907 13.4915434,7.45636279" id="Fill-23" fill="#F0F0F0" mask="url(#mask-2)"></path>
                </g>
                <path d="M35.2628151,23.0241767 C35.1527774,23.061014 35.0427396,23.0978512 34.9327019,23.153107 C34.8766642,23.1899442 34.8033057,23.2083628 34.7482868,23.2636186 L27.9086264,11.373386 C28.4965132,11.4470605 29.0864377,11.3918047 29.6559849,11.1881767 L29.7843623,13.3114326 C29.8027019,13.4966419 29.8393811,13.6439907 29.9320981,13.7923628 C31.6967774,16.8754326 33.4604377,19.9400837 35.2628151,23.0241767" id="Fill-25" fill="#D1D1D1"></path>
                <path d="M37.3961208,31.8687907 L51.4238943,31.8687907 L51.4238943,33.0322326 L35.5203849,33.0322326 L35.5203849,25.4795814 C35.5203849,24.7970698 35.7781585,24.0951163 36.4027245,23.7073023 C36.9732906,23.3563256 37.7822717,23.3010698 38.4068377,23.3010698 L51.4055547,23.3010698 C51.4238943,23.4484186 51.4238943,23.5967907 51.4238943,23.7441395 L38.4068377,23.7441395 C38.0206868,23.7441395 37.6528755,23.7625581 37.2667245,23.8362326 C37.0099698,23.8925116 36.7521962,23.9846047 36.5504604,24.1319535 C36.3487245,24.2793023 36.2009887,24.4645116 36.1082717,24.6855349 C36.0542717,24.8154884 36.0165736,24.926 35.998234,25.0733488 C35.9615547,25.2033023 35.9432151,25.3506512 35.9432151,25.4795814 L35.9432151,30.4280465 C35.9432151,31.222093 36.6054792,31.8687907 37.3961208,31.8687907" id="Fill-27" fill="#DDDDDD"></path>
                <path d="M33.0201849,8.21551628 C32.2295434,8.67700465 31.2004868,8.40072558 30.7409774,7.60667907 C30.2814679,6.81263256 30.5565623,5.77812093 31.3655434,5.31663256 C32.155166,4.85514419 33.1679208,5.13244651 33.6274302,5.94491163 C34.0869396,6.73895814 33.8108264,7.75402791 33.0201849,8.21551628 M40.9266,17.2999814 L40.9072415,17.2999814 C40.8899208,17.2631442 40.8705623,17.2447256 40.833883,17.2447256 L40.833883,17.226307 C40.7421849,17.2078884 40.6321472,17.1710512 40.5394302,17.134214 C40.3193547,17.0789581 40.0982604,17.0042605 39.8598453,16.9316093 C39.2352792,16.7279814 39.0141849,16.5980279 38.6830528,16.0076093 C37.8740717,14.6231442 37.0834302,13.2192372 36.2744491,11.8347721 C36.2194302,11.7058419 36.1450528,11.594307 36.0910528,11.4653767 C36.0716943,11.3917023 36.0350151,11.3364465 36.0166755,11.2811907 C35.9983358,11.2249116 35.9983358,11.1696558 35.9799962,11.1144 C35.9249774,10.8749581 35.9616566,10.634493 35.9799962,10.3940279 C36.0543736,9.7851907 36.1277321,9.17533023 36.2010906,8.56649302 C36.2010906,8.56649302 36.2010906,8.54807442 36.1827509,8.52965581 C36.1827509,8.51123721 36.1827509,8.51123721 36.1644113,8.4928186 C36.1644113,8.4744 36.1450528,8.4559814 36.1450528,8.43756279 L36.1277321,8.34444651 C36.0543736,8.21551628 35.9616566,8.08658605 35.8882981,7.95765581 L35.8882981,7.93821395 C35.7782604,7.75402791 35.6855434,7.62509767 35.5755057,7.43988837 C35.1893547,6.77579535 34.8225623,6.12909767 34.4364113,5.46500465 C34.0869396,4.83672558 33.5163736,4.41207442 32.8551283,4.24630698 L32.8357698,4.24630698 C32.8184491,4.22788837 32.7990906,4.22788837 32.7817698,4.22788837 L32.7624113,4.20844651 C32.7257321,4.20844651 32.7073925,4.19002791 32.6707132,4.19002791 C32.4129396,4.1531907 32.1195057,4.13477209 31.8433925,4.1716093 C31.383883,4.24630698 30.9610528,4.41207442 30.6115811,4.68937674 C30.1520717,5.03933023 29.8209396,5.52026047 29.6742226,6.09226047 L29.6742226,6.11067907 C29.655883,6.16593488 29.6375434,6.20277209 29.6375434,6.25802791 C29.6008642,6.35114419 29.5825245,6.44323721 29.563166,6.53533023 C29.509166,6.75737674 29.4347887,6.9784 29.3797698,7.20044651 C29.3247509,7.38463256 29.2880717,7.56984186 29.2330528,7.75402791 C29.1403358,8.12342326 29.178034,8.51123721 29.3797698,8.84379535 C29.509166,9.0648186 29.6375434,9.30528372 29.7659208,9.52630698 C29.949317,9.85886512 30.1520717,10.1730047 30.3181472,10.4871442 C30.3915057,10.6160744 30.4648642,10.726586 30.519883,10.8381209 C32.4496189,14.0869581 34.362034,17.2999814 36.2561094,20.5314233 C36.4578453,20.9192372 36.6789396,21.2886326 36.900034,21.6580279 C36.9367132,21.7317023 37.0100717,21.8053767 37.0650906,21.8800744 C37.2484868,22.1010977 37.4512415,22.2116093 37.7456943,22.2668651 C38.4802981,22.414214 39.2352792,22.562586 39.9882226,22.7293767 C40.0065623,22.7293767 40.0249019,22.7293767 40.0442604,22.7477953 C40.7605245,22.7293767 41.4584491,22.7293767 42.1584113,22.7293767 C42.7829774,22.7293767 43.3902226,22.7293767 43.9954302,22.7477953 L44.0147887,22.7293767 C43.8303736,22.414214 41.0916566,17.6141209 40.9266,17.2999814" id="Fill-29" fill="#FFFFFF"></path>
                <path d="M33.0201849,8.21551628 C32.2295434,8.67700465 31.2004868,8.40072558 30.7409774,7.60667907 C30.2814679,6.81263256 30.5565623,5.77812093 31.3655434,5.31663256 C32.155166,4.85514419 33.1679208,5.13244651 33.6274302,5.94491163 C34.0869396,6.73895814 33.8108264,7.75402791 33.0201849,8.21551628 M40.9266,17.2999814 L40.9072415,17.2999814 C40.8899208,17.2631442 40.8705623,17.2447256 40.833883,17.2447256 L40.833883,17.226307 C40.7421849,17.2078884 40.6321472,17.1710512 40.5394302,17.134214 C40.3193547,17.0789581 40.0982604,17.0042605 39.8598453,16.9316093 C39.2352792,16.7279814 39.0141849,16.5980279 38.6830528,16.0076093 C37.8740717,14.6231442 37.0834302,13.2192372 36.2744491,11.8347721 C36.2194302,11.7058419 36.1450528,11.594307 36.0910528,11.4653767 C36.0716943,11.3917023 36.0350151,11.3364465 36.0166755,11.2811907 C35.9983358,11.2249116 35.9983358,11.1696558 35.9799962,11.1144 C35.9249774,10.8749581 35.9616566,10.634493 35.9799962,10.3940279 C36.0543736,9.7851907 36.1277321,9.17533023 36.2010906,8.56649302 C36.2010906,8.56649302 36.2010906,8.54807442 36.1827509,8.52965581 C36.1827509,8.51123721 36.1827509,8.51123721 36.1644113,8.4928186 C36.1644113,8.4744 36.1450528,8.4559814 36.1450528,8.43756279 L36.1277321,8.34444651 C36.0543736,8.21551628 35.9616566,8.08658605 35.8882981,7.95765581 L35.8882981,7.93821395 C35.7782604,7.75402791 35.6855434,7.62509767 35.5755057,7.43988837 C35.1893547,6.77579535 34.8225623,6.12909767 34.4364113,5.46500465 C34.0869396,4.83672558 33.5163736,4.41207442 32.8551283,4.24630698 L32.8357698,4.24630698 C32.8184491,4.22788837 32.7990906,4.22788837 32.7817698,4.22788837 L32.7624113,4.20844651 C32.7257321,4.20844651 32.7073925,4.19002791 32.6707132,4.19002791 C32.4129396,4.1531907 32.1195057,4.13477209 31.8433925,4.1716093 C31.383883,4.24630698 30.9610528,4.41207442 30.6115811,4.68937674 C30.1520717,5.03933023 29.8209396,5.52026047 29.6742226,6.09226047 L29.6742226,6.11067907 C29.655883,6.16593488 29.6375434,6.20277209 29.6375434,6.25802791 C29.6008642,6.35114419 29.5825245,6.44323721 29.563166,6.53533023 C29.509166,6.75737674 29.4347887,6.9784 29.3797698,7.20044651 C29.3247509,7.38463256 29.2880717,7.56984186 29.2330528,7.75402791 C29.1403358,8.12342326 29.178034,8.51123721 29.3797698,8.84379535 C29.509166,9.0648186 29.6375434,9.30528372 29.7659208,9.52630698 C29.949317,9.85886512 30.1520717,10.1730047 30.3181472,10.4871442 C30.3915057,10.6160744 30.4648642,10.726586 30.519883,10.8381209 C32.4496189,14.0869581 34.362034,17.2999814 36.2561094,20.5314233 C36.4578453,20.9192372 36.6789396,21.2886326 36.900034,21.6580279 C36.9367132,21.7317023 37.0100717,21.8053767 37.0650906,21.8800744 C37.2484868,22.1010977 37.4512415,22.2116093 37.7456943,22.2668651 C38.4802981,22.414214 39.2352792,22.562586 39.9882226,22.7293767 C40.0065623,22.7293767 40.0249019,22.7293767 40.0442604,22.7477953 C40.7605245,22.7293767 41.4584491,22.7293767 42.1584113,22.7293767 C42.7829774,22.7293767 43.3902226,22.7293767 43.9954302,22.7477953 L44.0147887,22.7293767 C43.8303736,22.414214 41.0916566,17.6141209 40.9266,17.2999814" id="Fill-31" fill="#F0F0F0"></path>
                <path d="M33.0201849,8.21551628 C32.2295434,8.67700465 31.2004868,8.40072558 30.7409774,7.60667907 C30.2814679,6.81263256 30.5565623,5.77812093 31.3655434,5.31663256 C32.155166,4.85514419 33.1679208,5.13244651 33.6274302,5.94491163 C34.0869396,6.73895814 33.8108264,7.75402791 33.0201849,8.21551628" id="Fill-33" fill="#DDDDDD"></path>
                <path d="M40.0437509,22.747386 C39.2347698,22.747386 38.4257887,22.7658047 37.6168075,22.7842233 C37.0472604,22.7842233 36.495034,22.8210605 35.9244679,22.8763163 C35.7594113,22.8947349 35.5943547,22.9315721 35.4292981,22.9684093 C35.3732604,22.9868279 35.3182415,23.0052465 35.2632226,23.0246884 C33.4608453,19.9405953 31.6971849,16.8759442 29.9314868,13.7918512 C29.8387698,13.6445023 29.8020906,13.4961302 29.7847698,13.3119442 L29.6563925,11.1886884 C29.9498264,11.1139907 30.2442792,10.9850605 30.5193736,10.8377116 C32.4501283,14.0875721 34.3625434,17.3005953 36.2556,20.531014 C36.4573358,20.9188279 36.6784302,21.2882233 36.8995245,21.6576186 C36.9362038,21.731293 37.0095623,21.8059907 37.0645811,21.8796651 C37.2489962,22.1006884 37.4507321,22.2122233 37.7451849,22.2674791 C38.4808075,22.4148279 39.2347698,22.5621767 39.9877132,22.7289674 C40.0070717,22.7289674 40.0243925,22.7289674 40.0437509,22.747386" id="Fill-35" fill="#DDDDDD"></path>
                <polygon id="Fill-37" fill="#F0F0F0" points="10.9393811 25.1292186 10.9393811 25.2960093 10.8110038 25.6275442 10.3148151 25.6275442 10.1854189 25.2960093 10.1854189 25.1292186"></polygon>
                <path d="M3.43816981,31.6653674 C3.41881132,31.7022047 3.40149057,31.7022047 3.38315094,31.7022047 L0.68009434,31.7022047 C0.643415094,31.7022047 0.625075472,31.7022047 0.606735849,31.6653674 C0.588396226,31.6285302 0.606735849,31.591693 0.643415094,31.5732744 L0.661754717,31.5548558 C0.846169811,31.4259256 1.06624528,31.3143907 1.26798113,31.1854605 L2.79424528,31.1854605 C2.97866038,31.3143907 3.19975472,31.4259256 3.40149057,31.5548558 L3.41881132,31.5732744 C3.45650943,31.591693 3.45650943,31.6285302 3.43816981,31.6653674" id="Fill-39" fill="#FFFFFF"></path>
                <path d="M2.88696226,31.019386 C2.86760377,31.0746419 2.83092453,31.1298977 2.79424528,31.1851535 L1.26798113,31.1851535 C1.21296226,31.1298977 1.19564151,31.0746419 1.15896226,31.019386 L2.88696226,31.019386 Z" id="Fill-41" fill="#D1D1D1"></path>
                <path d="M3.03123396,27.1702047 C2.97723396,27.239786 2.95583774,27.3083442 2.95787547,27.3963442 C2.96806415,27.4771814 2.96908302,27.5529023 3.03123396,27.6204372 C3.0078,27.6204372 2.9823283,27.6286233 2.95787547,27.619414 L2.95481887,27.5979256 L2.95481887,27.4127163 L2.95481887,27.3441581 L2.95481887,26.9962512 L2.95481887,26.927693 L2.95481887,26.7383907 C2.95583774,26.7322512 2.9568566,26.7271349 2.95787547,26.7209953 C2.9823283,26.7128093 3.0078,26.7199721 3.03225283,26.7199721 L3.23908302,26.7199721 C3.26455472,26.7199721 3.28798868,26.7128093 3.31346038,26.7209953 C3.31447925,26.7271349 3.31549811,26.7322512 3.31651698,26.7383907 L3.31651698,26.927693 L3.31651698,26.9962512 L3.31651698,27.3441581 L3.31651698,27.4127163 L3.31651698,27.5979256 L3.31346038,27.619414 C3.28798868,27.6286233 3.26455472,27.6204372 3.23908302,27.6204372 C3.30123396,27.5529023 3.30429057,27.4771814 3.31346038,27.3963442 C3.31549811,27.3083442 3.29308302,27.239786 3.24010189,27.1702047 L3.03123396,27.1702047 C2.97825283,27.1006233 2.95583774,27.0320651 2.95787547,26.9440651 C2.96806415,26.8632279 2.96908302,26.787507 3.03225283,26.7199721" id="Stroke-43" stroke="#F9F9F9" stroke-width="0.088" stroke-linecap="round" stroke-linejoin="round"></path>
                <line x1="2.95461509" y1="26.8793953" x2="2.75186038" y2="26.8793953" id="Stroke-45" stroke="#F9F9F9" stroke-width="0.088" stroke-linecap="round" stroke-linejoin="round"></line>
                <line x1="2.95461509" y1="27.4614233" x2="2.75186038" y2="27.4614233" id="Stroke-47" stroke="#F9F9F9" stroke-width="0.088" stroke-linecap="round" stroke-linejoin="round"></line>
                <line x1="3.03225283" y1="27.6208465" x2="3.23908302" y2="27.6208465" id="Stroke-49" stroke="#F9F9F9" stroke-width="0.088" stroke-linecap="round" stroke-linejoin="round"></line>
                <line x1="2.38944906" y1="25.6493395" x2="2.38944906" y2="25.7138047" id="Stroke-51" stroke="#F9F9F9" stroke-width="0.18" stroke-linecap="round" stroke-linejoin="round"></line>
                <line x1="1.66411698" y1="25.714214" x2="1.66411698" y2="25.6497488" id="Stroke-53" stroke="#F9F9F9" stroke-width="0.18" stroke-linecap="round" stroke-linejoin="round"></line>
                <line x1="3.62126038" y1="27.5343814" x2="3.94016604" y2="27.4320558" id="Stroke-55" stroke="#F9F9F9" stroke-width="0.088" stroke-linecap="round" stroke-linejoin="round"></line>
                <line x1="3.31682264" y1="27.4504744" x2="3.58376604" y2="27.4504744" id="Stroke-57" stroke="#F9F9F9" stroke-width="0.088" stroke-linecap="round" stroke-linejoin="round"></line>
                <line x1="3.31682264" y1="26.8903442" x2="3.58376604" y2="26.8903442" id="Stroke-59" stroke="#F9F9F9" stroke-width="0.088" stroke-linecap="round" stroke-linejoin="round"></line>
                <polygon id="Fill-61" fill="#D1D1D1" points="2.85007925 29.8562512 1.21377736 29.8562512 1.28713585 29.7078791 2.77672075 29.7078791"></polygon>
                <mask id="mask-4" fill="white">
                    <use xlink:href="#path-3"></use>
                </mask>
                <g id="Clip-64"></g>
                <polygon id="Fill-63" fill="#FFFFFF" mask="url(#mask-4)" points="1.15845283 31.0192837 2.90479245 31.0192837 2.90479245 29.8558419 1.15845283 29.8558419"></polygon>
                <path d="M2.75756604,27.8246791 L2.90530189,27.8246791 L2.90530189,29.708493 L1.15896226,29.708493 L1.15896226,26.3849581 C1.17628302,26.3112837 1.19564151,26.236586 1.19564151,26.144493 C1.19564151,26.0708186 1.17628302,25.9971442 1.15896226,25.9050512 L1.15896226,25.7935163 L2.90530189,25.7935163 C2.88696226,26.0339814 2.88696226,26.2734233 2.88696226,26.5138884 L2.75756604,26.5138884 L2.75756604,27.8246791 Z" id="Fill-65" fill="#F0F0F0" mask="url(#mask-4)"></path>
                <polyline id="Fill-66" fill="#F0F0F0" mask="url(#mask-4)" points="0.867158491 25.1251256 0.867158491 25.6490326 3.18610189 25.6490326 3.18610189 25.1251256"></polyline>
                <path d="M3.24020377,27.1702047 C3.29318491,27.1006233 3.3156,27.0320651 3.31356226,26.9440651 C3.30337358,26.8632279 3.30235472,26.787507 3.23918491,26.7199721" id="Stroke-67" stroke="#F9F9F9" stroke-width="0.088" stroke-linecap="round" stroke-linejoin="round" mask="url(#mask-4)"></path>
                <path d="M6.0858,19.7895628 L6.0858,24.6336558 C6.0858,24.9068651 5.86470566,25.1289116 5.59266792,25.1289116 L0.493233962,25.1289116 C0.220177358,25.1289116 0.000101886792,24.9068651 0.000101886792,24.6336558 L0.000101886792,19.7895628 C0.000101886792,19.5163535 0.220177358,19.294307 0.493233962,19.294307 L5.59266792,19.294307 C5.86470566,19.294307 6.0858,19.5163535 6.0858,19.7895628" id="Fill-68" fill="#F0F0F0" mask="url(#mask-4)"></path>
                <polyline id="Stroke-69" stroke="#F9F9F9" stroke-width="0.088" stroke-linecap="round" stroke-linejoin="round" mask="url(#mask-4)" points="3.94067547 26.9083535 3.62176981 26.8060279 3.62176981 27.534586 3.57795849 27.534586 3.57795849 26.8060279 3.62176981 26.8060279"></polyline>
                <polygon id="Fill-70" fill="#F0F0F0" mask="url(#mask-4)" points="6.83864151 25.5540744 8.21818868 25.5540744 8.21818868 25.1294233 6.83864151 25.1294233"></polygon>
                <path d="M52.8174,43.4403814 L31.5159283,43.4403814 C31.4120038,43.4403814 31.3274377,43.3554512 31.3274377,43.2510791 L31.3274377,42.9287535 C31.3274377,42.8243814 31.4120038,42.7394512 31.5159283,42.7394512 L52.8174,42.7394512 C52.9223434,42.7394512 53.0069094,42.8243814 53.0069094,42.9287535 L53.0069094,43.2510791 C53.0069094,43.3554512 52.9223434,43.4403814 52.8174,43.4403814" id="Fill-71" fill="#F0F0F0" mask="url(#mask-4)"></path>
            </g>
        </g>
    </g>
</svg>