<?xml version="1.0" encoding="UTF-8"?>
<svg width="14px" height="7px" viewBox="0 0 14 7" version="1.1" xmlns="http://www.w3.org/2000/svg" xmlns:xlink="http://www.w3.org/1999/xlink">
    <!-- Generator: Sketch 60 (88103) - https://sketch.com -->
    <title>路径</title>
    <desc>Created with Sketch.</desc>
    <g id="页面-1" stroke="none" stroke-width="1" fill="none" fill-rule="evenodd">
        <g id="控制面板——连接状态备份" transform="translate(-65.000000, -243.000000)">
            <rect id="矩形备份" fill="#252526" x="48" y="0" width="256" height="900"></rect>
            <g id="运动备份-10" transform="translate(65.000000, 243.000000)" fill="#F0F0F0" fill-rule="nonzero">
                <path d="M13.2702075,5.96831603 L11.4202051,5.96831603 L9.81379075,2.19717648 C9.74101348,2.02499707 9.57311283,1.93918558 9.3861139,1.93720042 C9.19268276,1.93490737 9.02892222,2.03777141 8.95248158,2.20841068 L7.61104828,5.1902993 L5.76456508,0.522890747 C5.69346527,0.343987356 5.52053195,0.175054874 5.3281776,0.175054874 C5.32725423,0.175054874 5.32634625,0.175054874 5.32542286,0.175054874 C5.13199172,0.175054874 4.95905884,0.317562489 4.88963544,0.498143941 L2.79697754,5.96832355 L0.744233352,5.96832355 C0.484749065,5.96832355 0.27451175,6.17856086 0.27451175,6.43804515 C0.27451175,6.69752944 0.484749065,6.90776675 0.744233352,6.90776675 L3.11977635,6.90776675 C3.31426925,6.90776675 3.48858723,6.8175222 3.55830239,6.63587823 L5.33583141,2.03722835 L7.14898801,6.59409967 C7.21871821,6.7696328 7.38660247,6.88426969 7.57543316,6.88825655 C7.76320209,6.89284265 7.93690346,6.77915976 8.01411259,6.60698064 L9.36885698,3.57502692 L10.6763411,6.65101507 C10.749734,6.82471794 10.9202193,6.90776675 11.1089116,6.90776675 L13.2702229,6.90776675 C13.5297072,6.90776675 13.7399445,6.69752192 13.7399445,6.43803763 C13.7399445,6.17855334 13.5296922,5.96831603 13.2702079,5.96831603 L13.2702075,5.96831603 Z" id="路径"></path>
            </g>
        </g>
    </g>
</svg>
